<?xml version="1.0" standalone="no"?>
<svg width="64" height="64" viewBox="0 0 384 384" version="1.1" xmlns="http://www.w3.org/2000/svg">
  <path d="M112 192c0 53 27 80 80 80s80 -27 80 -80s-27 -80 -80 -80s-80 27 -80 80zM113 271c-14 -14 -23 -29 -28 -47h-85v112c0 13 4 25 14 34s22 14 35 14h288c13 0 24 -5 33 -14s14 -21 14 -34v-112h-84c-5 18 -14 33 -28 47c-22 22 -49 33 -80 33s-57 -11 -79 -33zM352 300 v39c0 4 -2 7 -4 9s-5 4 -9 4h-38c-4 0 -7 -2 -9 -4s-4 -5 -4 -9v-39c0 -4 2 -7 4 -9s5 -3 9 -3h38c4 0 7 1 9 3s4 5 4 9zM272 113c22 22 32 48 32 79h80v-144c0 -13 -5 -24 -14 -34s-20 -14 -33 -14h-288c-13 0 -24 4 -34 14s-15 21 -15 34v144h81c0 -31 10 -57 32 -79 s48 -33 79 -33s58 11 80 33z" transform="matrix(1,0,0,-1,0,384)"/>
</svg>