<?xml version="1.0" standalone="no"?>
<svg width="64" height="64" viewBox="0 0 512 384" version="1.1" xmlns="http://www.w3.org/2000/svg">
  <path d="M112 320c-18 0 -32 14 -32 32v32c0 18 14 32 32 32s32 -14 32 -32v-32c0 -18 -14 -32 -32 -32zM336 320c-18 0 -32 14 -32 32v32c0 18 14 32 32 32s32 -14 32 -32v-32c0 -18 -14 -32 -32 -32zM440 384c4 0 8 -4 8 -8v-400c0 -4 -4 -8 -8 -8h-432c-4 0 -8 4 -8 8v400 c0 4 4 8 8 8h56v-41c0 -22 24 -39 48 -39s48 17 48 39v41h128v-41c0 -22 25 -39 49 -39s47 17 47 39v41h56zM400 16v256h-352v-256h352z" transform="matrix(1,0,0,-1,0,384)"/>
</svg>